<?xml version="1.0" encoding="utf-8"?>
<!-- Generator: Adobe Illustrator 22.0.1, SVG Export Plug-In . SVG Version: 6.00 Build 0)  -->
<svg version="1.1" id="Layer_1" xmlns="http://www.w3.org/2000/svg" xmlns:xlink="http://www.w3.org/1999/xlink" x="0px" y="0px"
	 viewBox="0 0 54 48" style="enable-background:new 0 0 54 48;" xml:space="preserve">
<style type="text/css">
	.st0{display:none;fill:#FFFFFF;}
	.st1{fill:#FFFFFF;}
</style>
<path class="st0" d="M48.7,35.9L48.7,35.9L48,36h-3c-1.1,0-2-0.9-2-2c0-1.1,0.9-2,2-2h3c1.1,0,2-0.9,2-2s-0.9-2-2-2s-2-0.9-2-2
	c0-1.1,0.9-2,2-2c0.1,0,0.3,0,0.4,0c3.1,0.2,5.6,2.8,5.6,6C54,33.1,51.7,35.6,48.7,35.9z M38,24c-1.1,0-2-0.9-2-2s0.9-2,2-2
	c0.1,0,0.3,0,0.4,0c3.1,0.2,5.6,2.8,5.6,6c0,3.1-2.3,5.6-5.2,5.9V32H38h-8c-4,0-11.4,0-14,0c-1.1,0-2,0.9-2,2c0,1.1,0.9,2,2,2h22
	h0.8V36c3,0.4,5.2,2.9,5.2,5.9c0,3.2-2.5,5.7-5.6,6c-0.1,0-0.3,0-0.4,0c-1.1,0-2-0.9-2-2s0.9-2,2-2s2-0.9,2-2c0-1.1-0.9-2-2-2H16
	h-0.8v-0.1c-3-0.4-5.2-2.9-5.2-5.9c0-1.1,0.3-2,0.8-2.9C4.5,28.9,0,23,0,16C0,7.2,7.2,0,16,0c6,0,11.2,3.3,14,8.2
	C30.6,8.1,31.3,8,32,8c5.9,0,10.8,4.3,11.8,9.9c-1.4-1-3.1-1.6-4.8-1.8c-1.4-2.4-4-4-6.9-4c-1.6,0-3.1,0.5-4.3,1.3
	C26.4,8,21.7,4,16,4C9.4,4,4,9.4,4,16c0,6.6,5.4,12,12,12c2.6,0,8.2,0,12.2,0H38c1.1,0,2-0.9,2-2C40,24.9,39.1,24,38,24z"/>
<path class="st1" d="M19.6,43.6C8.8,43.6,0,34.8,0,24S8.8,4.4,19.6,4.4c7.4,0,13.7,4,17.2,10.1c0.9-0.1,1.6-0.2,2.5-0.2
	c8.1,0,14.7,6.6,14.7,14.7s-6.6,14.7-14.7,14.7C36,43.6,23.6,43.6,19.6,43.6z M39.3,38.7c5.4,0,9.8-4.4,9.8-9.8s-4.4-9.8-9.8-9.8
	c-2,0-3.8,0.6-5.3,1.6c-1.5-6.5-7.4-11.4-14.4-11.4C11.5,9.3,4.9,15.9,4.9,24s6.6,14.7,14.7,14.7C24.2,38.7,35.6,38.7,39.3,38.7z"/>
</svg>
