<?xml version="1.0" encoding="utf-8"?>
<!-- Generator: Adobe Illustrator 22.0.1, SVG Export Plug-In . SVG Version: 6.00 Build 0)  -->
<svg version="1.1" id="Layer_1" xmlns="http://www.w3.org/2000/svg" xmlns:xlink="http://www.w3.org/1999/xlink" x="0px" y="0px"
	 viewBox="0 0 54 48" style="enable-background:new 0 0 54 48;" xml:space="preserve">
<style type="text/css">
	.st0{display:none;fill:#FFFFFF;}
	.st1{fill:#FFFFFF;}
</style>
<path class="st0" d="M48.7,35.9L48.7,35.9L48,36h-3c-1.1,0-2-0.9-2-2c0-1.1,0.9-2,2-2h3c1.1,0,2-0.9,2-2s-0.9-2-2-2s-2-0.9-2-2
	c0-1.1,0.9-2,2-2c0.1,0,0.3,0,0.4,0c3.1,0.2,5.6,2.8,5.6,6C54,33.1,51.7,35.6,48.7,35.9z M38,24c-1.1,0-2-0.9-2-2s0.9-2,2-2
	c0.1,0,0.3,0,0.4,0c3.1,0.2,5.6,2.8,5.6,6c0,3.1-2.3,5.6-5.2,5.9V32H38h-8c-4,0-11.4,0-14,0c-1.1,0-2,0.9-2,2c0,1.1,0.9,2,2,2h22
	h0.8V36c3,0.4,5.2,2.9,5.2,5.9c0,3.2-2.5,5.7-5.6,6c-0.1,0-0.3,0-0.4,0c-1.1,0-2-0.9-2-2s0.9-2,2-2s2-0.9,2-2c0-1.1-0.9-2-2-2H16
	h-0.8v-0.1c-3-0.4-5.2-2.9-5.2-5.9c0-1.1,0.3-2,0.8-2.9C4.5,28.9,0,23,0,16C0,7.2,7.2,0,16,0c6,0,11.2,3.3,14,8.2
	C30.6,8.1,31.3,8,32,8c5.9,0,10.8,4.3,11.8,9.9c-1.4-1-3.1-1.6-4.8-1.8c-1.4-2.4-4-4-6.9-4c-1.6,0-3.1,0.5-4.3,1.3
	C26.4,8,21.7,4,16,4C9.4,4,4,9.4,4,16c0,6.6,5.4,12,12,12c2.6,0,8.2,0,12.2,0H38c1.1,0,2-0.9,2-2C40,24.9,39.1,24,38,24z"/>
<path class="st1" d="M42.3,34.1v-4.8c2.6-1.5,4.4-4.3,4.4-7.5c0-4.8-3.9-8.7-8.7-8.7c-1.7,0-3.4,0.5-4.7,1.4
	C31.8,8.7,26.7,4.4,20.5,4.4c-7.2,0-13.1,5.9-13.1,13.1c0,3.9,1.7,7.3,4.4,9.7v5.4C6.5,29.5,3,23.9,3,17.5C3,7.8,10.8,0,20.5,0
	C27,0,32.7,3.6,35.7,8.9c0.7-0.1,1.5-0.2,2.2-0.2c7.2,0,13.1,5.9,13.1,13.1C51,27.5,47.3,32.3,42.3,34.1z M18.3,34.9
	c-1.2,0-1.1-1-1.1-2.2V24c0-1.2-0.1-2.2,1.1-2.2s1.1,1,1.1,2.2v8.7C19.4,33.9,19.5,34.9,18.3,34.9z M18.3,39.3c1.2,0,2.2,1,2.2,2.2
	c0,1.2-1,2.2-2.2,2.2s-2.2-1-2.2-2.2C16.1,40.2,17.1,39.3,18.3,39.3z M27,39.3c-1.2,0-1.1-1-1.1-2.2v-8.7c0-1.2-0.1-2.2,1.1-2.2
	s1.1,1,1.1,2.2v8.7C28.1,38.3,28.2,39.3,27,39.3z M27,43.6c1.2,0,2.2,1,2.2,2.2c0,1.2-1,2.2-2.2,2.2s-2.2-1-2.2-2.2
	C24.8,44.6,25.8,43.6,27,43.6z M35.7,34.9c-1.2,0-1.1-1-1.1-2.2V24c0-1.2-0.1-2.2,1.1-2.2s1.1,1,1.1,2.2v8.7
	C36.8,33.9,36.9,34.9,35.7,34.9z M35.7,39.3c1.2,0,2.2,1,2.2,2.2c0,1.2-1,2.2-2.2,2.2s-2.2-1-2.2-2.2C33.5,40.2,34.5,39.3,35.7,39.3
	z"/>
</svg>
