<?xml version="1.0" encoding="utf-8"?>
<!-- Generator: Adobe Illustrator 22.0.1, SVG Export Plug-In . SVG Version: 6.00 Build 0)  -->
<svg version="1.1" id="Layer_1" xmlns="http://www.w3.org/2000/svg" xmlns:xlink="http://www.w3.org/1999/xlink" x="0px" y="0px"
	 viewBox="0 0 54 48" style="enable-background:new 0 0 54 48;" xml:space="preserve">
<style type="text/css">
	.st0{display:none;fill:#FFFFFF;}
	.st1{fill:#FFFFFF;}
</style>
<path class="st0" d="M48.7,35.9L48.7,35.9L48,36h-3c-1.1,0-2-0.9-2-2c0-1.1,0.9-2,2-2h3c1.1,0,2-0.9,2-2s-0.9-2-2-2s-2-0.9-2-2
	c0-1.1,0.9-2,2-2c0.1,0,0.3,0,0.4,0c3.1,0.2,5.6,2.8,5.6,6C54,33.1,51.7,35.6,48.7,35.9z M38,24c-1.1,0-2-0.9-2-2s0.9-2,2-2
	c0.1,0,0.3,0,0.4,0c3.1,0.2,5.6,2.8,5.6,6c0,3.1-2.3,5.6-5.2,5.9V32H38h-8c-4,0-11.4,0-14,0c-1.1,0-2,0.9-2,2c0,1.1,0.9,2,2,2h22
	h0.8V36c3,0.4,5.2,2.9,5.2,5.9c0,3.2-2.5,5.7-5.6,6c-0.1,0-0.3,0-0.4,0c-1.1,0-2-0.9-2-2s0.9-2,2-2s2-0.9,2-2c0-1.1-0.9-2-2-2H16
	h-0.8v-0.1c-3-0.4-5.2-2.9-5.2-5.9c0-1.1,0.3-2,0.8-2.9C4.5,28.9,0,23,0,16C0,7.2,7.2,0,16,0c6,0,11.2,3.3,14,8.2
	C30.6,8.1,31.3,8,32,8c5.9,0,10.8,4.3,11.8,9.9c-1.4-1-3.1-1.6-4.8-1.8c-1.4-2.4-4-4-6.9-4c-1.6,0-3.1,0.5-4.3,1.3
	C26.4,8,21.7,4,16,4C9.4,4,4,9.4,4,16c0,6.6,5.4,12,12,12c2.6,0,8.2,0,12.2,0H38c1.1,0,2-0.9,2-2C40,24.9,39.1,24,38,24z"/>
<path class="st1" d="M49.9,24.7L49.9,24.7c1.6,2.3,2.6,5.1,2.6,8.2c0,7.9-6.4,14.3-14.3,14.3c-3.3,0-15.3,0-19.1,0
	C8.5,47.2,0,38.7,0,28.2S8.5,9.1,19.1,9.1c2.4,0,4.7,0.4,6.8,1.2l0,0c1.9-5.6,7.2-9.6,13.5-9.6c0.9,0,1.8,0.1,2.6,0.3
	c-0.2,0.7-0.2,1.4-0.2,2.1c0,5.3,4.3,9.5,9.5,9.5c0.7,0,1.4-0.1,2.1-0.2c0.2,0.9,0.3,1.7,0.3,2.6C53.6,18.8,52.2,22.2,49.9,24.7z
	 M4.8,28.2c0,7.9,6.4,14.3,14.3,14.3c4.3,0,15.5,0,19.1,0c5.3,0,9.5-4.3,9.5-9.5c0-5.3-4.3-9.5-9.5-9.5c-1.9,0-3.7,0.6-5.2,1.5
	c-1.5-6.3-7.1-11.1-13.9-11.1C11.2,13.9,4.8,20.3,4.8,28.2z M28.1,11.4C28.1,11.4,28.1,11.4,28.1,11.4
	C28.1,11.4,28.1,11.4,28.1,11.4z M37.2,5.8c-3.5,0.8-6.2,3.5-7.1,6.9l0,0c2.3,1.6,4.2,3.8,5.6,6.2c0.8-0.1,1.6-0.2,2.4-0.2
	c3.1,0,6,1,8.4,2.7l0,0c1-1.2,1.8-2.6,2.1-4.2C42.8,16.1,38.3,11.6,37.2,5.8z"/>
</svg>
