<?xml version="1.0" encoding="utf-8"?>
<!-- Generator: Adobe Illustrator 22.0.1, SVG Export Plug-In . SVG Version: 6.00 Build 0)  -->
<svg version="1.1" id="Layer_1" xmlns="http://www.w3.org/2000/svg" xmlns:xlink="http://www.w3.org/1999/xlink" x="0px" y="0px"
	 viewBox="0 0 54 48" style="enable-background:new 0 0 54 48;" xml:space="preserve">
<style type="text/css">
	.st0{display:none;fill:#FFFFFF;}
	.st1{fill:#FFFFFF;}
</style>
<path class="st0" d="M48.7,35.9L48.7,35.9L48,36h-3c-1.1,0-2-0.9-2-2c0-1.1,0.9-2,2-2h3c1.1,0,2-0.9,2-2s-0.9-2-2-2s-2-0.9-2-2
	c0-1.1,0.9-2,2-2c0.1,0,0.3,0,0.4,0c3.1,0.2,5.6,2.8,5.6,6C54,33.1,51.7,35.6,48.7,35.9z M38,24c-1.1,0-2-0.9-2-2s0.9-2,2-2
	c0.1,0,0.3,0,0.4,0c3.1,0.2,5.6,2.8,5.6,6c0,3.1-2.3,5.6-5.2,5.9V32H38h-8c-4,0-11.4,0-14,0c-1.1,0-2,0.9-2,2c0,1.1,0.9,2,2,2h22
	h0.8V36c3,0.4,5.2,2.9,5.2,5.9c0,3.2-2.5,5.7-5.6,6c-0.1,0-0.3,0-0.4,0c-1.1,0-2-0.9-2-2s0.9-2,2-2s2-0.9,2-2c0-1.1-0.9-2-2-2H16
	h-0.8v-0.1c-3-0.4-5.2-2.9-5.2-5.9c0-1.1,0.3-2,0.8-2.9C4.5,28.9,0,23,0,16C0,7.2,7.2,0,16,0c6,0,11.2,3.3,14,8.2
	C30.6,8.1,31.3,8,32,8c5.9,0,10.8,4.3,11.8,9.9c-1.4-1-3.1-1.6-4.8-1.8c-1.4-2.4-4-4-6.9-4c-1.6,0-3.1,0.5-4.3,1.3
	C26.4,8,21.7,4,16,4C9.4,4,4,9.4,4,16c0,6.6,5.4,12,12,12c2.6,0,8.2,0,12.2,0H38c1.1,0,2-0.9,2-2C40,24.9,39.1,24,38,24z"/>
<path class="st1" d="M1.4,32.6c-0.3-0.8-0.6-1.6-0.8-2.5H54c0,0.8-0.1,1.7-0.2,2.5H1.4z M10.1,8c2.8-1.6,6.1-2.5,9.5-2.5
	c3.4,0,6.7,0.9,9.5,2.5H10.1z M0.2,22.8c0.1-0.8,0.3-1.7,0.5-2.5h49.6c0.7,0.8,1.3,1.6,1.8,2.5H0.2z M1.4,17.9
	c0.3-0.9,0.8-1.7,1.2-2.5h34c0,0.1,0.1,0.2,0.2,0.3c0.8-0.1,1.6-0.3,2.5-0.3c3,0,5.8,0.9,8.1,2.5H1.4z M4.3,13
	c0.7-0.9,1.5-1.7,2.4-2.5h25.9c0.8,0.7,1.6,1.6,2.3,2.5H4.3z M53.8,27.7H0.2C0.1,26.9,0,26.1,0,25.2h53.1
	C53.4,26,53.6,26.8,53.8,27.7z M53.1,35c-0.3,0.9-0.7,1.7-1.1,2.5H4.3c-0.6-0.8-1.2-1.6-1.7-2.5H53.1z M6.7,39.9h43.5
	c-0.8,0.9-1.8,1.8-2.8,2.5H10.1C8.9,41.7,7.7,40.9,6.7,39.9z"/>
</svg>
