<?xml version="1.0" encoding="utf-8"?>
<!-- Generator: Adobe Illustrator 22.0.1, SVG Export Plug-In . SVG Version: 6.00 Build 0)  -->
<svg version="1.1" id="Layer_1" xmlns="http://www.w3.org/2000/svg" xmlns:xlink="http://www.w3.org/1999/xlink" x="0px" y="0px"
	 viewBox="0 0 54 48" style="enable-background:new 0 0 54 48;" xml:space="preserve">
<style type="text/css">
	.st0{display:none;fill:#FFFFFF;}
	.st1{fill:#FFFFFF;}
</style>
<path class="st0" d="M48.7,35.9L48.7,35.9L48,36h-3c-1.1,0-2-0.9-2-2s0.9-2,2-2h3c1.1,0,2-0.9,2-2s-0.9-2-2-2s-2-0.9-2-2s0.9-2,2-2
	c0.1,0,0.3,0,0.4,0c3.1,0.2,5.6,2.8,5.6,6C54,33.1,51.7,35.6,48.7,35.9z M38,24c-1.1,0-2-0.9-2-2s0.9-2,2-2c0.1,0,0.3,0,0.4,0
	c3.1,0.2,5.6,2.8,5.6,6c0,3.1-2.3,5.6-5.2,5.9V32H38h-8c-4,0-11.4,0-14,0c-1.1,0-2,0.9-2,2s0.9,2,2,2h22h0.8l0,0
	c3,0.4,5.2,2.9,5.2,5.9c0,3.2-2.5,5.7-5.6,6c-0.1,0-0.3,0-0.4,0c-1.1,0-2-0.9-2-2s0.9-2,2-2s2-0.9,2-2s-0.9-2-2-2H16h-0.8v-0.1
	c-3-0.4-5.2-2.9-5.2-5.9c0-1.1,0.3-2,0.8-2.9C4.5,28.9,0,23,0,16C0,7.2,7.2,0,16,0c6,0,11.2,3.3,14,8.2C30.6,8.1,31.3,8,32,8
	c5.9,0,10.8,4.3,11.8,9.9c-1.4-1-3.1-1.6-4.8-1.8c-1.4-2.4-4-4-6.9-4c-1.6,0-3.1,0.5-4.3,1.3C26.4,8,21.7,4,16,4C9.4,4,4,9.4,4,16
	s5.4,12,12,12c2.6,0,8.2,0,12.2,0H38c1.1,0,2-0.9,2-2S39.1,24,38,24z"/>
<path class="st1" d="M41.5,39.6v-5c4.2-1.1,7.3-4.9,7.3-9.4c0-5.4-4.4-9.8-9.8-9.8c-2,0-3.8,0.6-5.3,1.6
	c-1.5-6.5-7.3-11.3-14.2-11.3c-8.1,0-14.6,6.6-14.6,14.6c0,5.4,2.9,10.1,7.3,12.7v5.4C5,35.5,0,28.5,0,20.3C0,9.6,8.7,0.8,19.5,0.8
	c7.3,0,13.7,4,17,10c0.8-0.1,1.6-0.2,2.5-0.2c8.1,0,14.6,6.6,14.6,14.6C53.6,32.5,48.4,38.5,41.5,39.6z M18.4,32.5
	c0.7-1.2,2.2-1.6,3.3-0.9l2.7,1.5v-3.1c0-1.3,1.1-2.4,2.4-2.4c1.3,0,2.4,1.1,2.4,2.4v3.1l2.7-1.5c1.2-0.7,2.7-0.3,3.3,0.9
	c0.7,1.2,0.3,2.7-0.9,3.3l-2.7,1.5l2.7,1.5c1.2,0.7,1.6,2.2,0.9,3.3c-0.7,1.2-2.2,1.6-3.3,0.9l-2.7-1.5v3.1c0,1.3-1.1,2.4-2.4,2.4
	c-1.3,0-2.4-1.1-2.4-2.4v-3.1l-2.7,1.5c-1.2,0.7-2.7,0.3-3.3-0.9c-0.7-1.2-0.3-2.7,0.9-3.3l2.7-1.5l-2.7-1.5
	C18.1,35.2,17.7,33.7,18.4,32.5z M26.8,39.9c1.3,0,2.4-1.1,2.4-2.4c0-1.3-1.1-2.4-2.4-2.4c-1.3,0-2.4,1.1-2.4,2.4
	C24.4,38.8,25.5,39.9,26.8,39.9z"/>
</svg>
