<?xml version="1.0" encoding="utf-8"?>
<!-- Generator: Adobe Illustrator 22.0.1, SVG Export Plug-In . SVG Version: 6.00 Build 0)  -->
<svg version="1.1" id="Layer_1" xmlns="http://www.w3.org/2000/svg" xmlns:xlink="http://www.w3.org/1999/xlink" x="0px" y="0px"
	 viewBox="0 0 69.9 42.7" style="enable-background:new 0 0 69.9 42.7;" xml:space="preserve">
<style type="text/css">
	.st0{fill:#FFFFFF;}
</style>
<path class="st0" d="M18.9,28c-1.1,0-2.1,0-2.9,0C9.4,28,4,22.6,4,16C4,9.4,9.4,4,16,4c5.7,0,10.4,4,11.7,9.3
	c1.3-0.8,2.7-1.3,4.3-1.3c3.5,0,6.4,2.2,7.5,5.3h4.2C42.5,12,37.7,8,32,8c-0.7,0-1.4,0.1-2,0.2C27.2,3.3,22,0,16,0C7.2,0,0,7.2,0,16
	c0,8.8,7.2,16,16,16c1,0,2.6,0,4.5,0L18.9,28z"/>
<g>
	<path class="st0" d="M20.3,20.9h6.3l4.6,12.9l4.6-12.9H42l-8.2,20.5h-5.2L20.3,20.9z"/>
	<path class="st0" d="M38,20.9H44l3.5,11.7l3.9-11.8h4.8l3.9,11.8l3.5-11.7h5.8l-6.8,20.5h-4.9l-4.1-11.7l-4.1,11.7h-4.9L38,20.9z"
		/>
</g>
</svg>
